<svg version="1.1" xmlns="http://www.w3.org/2000/svg" style="display: block;" viewBox="0 0 2048 1614" width="618" height="487" preserveAspectRatio="none">
<defs>
	<linearGradient id="Gradient1" gradientUnits="userSpaceOnUse" x1="1812.66" y1="1267.68" x2="1539.45" y2="957.283">
		<stop class="stop0" offset="0" stop-opacity="1" stop-color="rgb(32,92,114)"/>
		<stop class="stop1" offset="1" stop-opacity="1" stop-color="rgb(29,121,124)"/>
	</linearGradient>
	<linearGradient id="Gradient2" gradientUnits="userSpaceOnUse" x1="475.673" y1="-203.679" x2="1208.68" y2="1092.04">
		<stop class="stop0" offset="0" stop-opacity="1" stop-color="rgb(33,77,117)"/>
		<stop class="stop1" offset="1" stop-opacity="1" stop-color="rgb(27,138,126)"/>
	</linearGradient>
</defs>
<path transform="translate(0,0)" fill="url(#Gradient2)" d="M 48.3232 34.4511 C 78.7152 35.3408 112.757 34.6738 143.428 34.6939 L 324.287 34.741 C 357.304 34.7417 412.434 32.9833 443.209 36.0985 C 491.593 41.369 538.229 57.2025 579.82 82.4798 C 611.897 101.842 633.812 122.167 661.596 146.805 L 734.162 211.576 L 985.156 435.665 C 970.201 447.7 953.441 463.46 938.747 476.375 C 915.969 496.394 892.205 516.854 869.951 537.361 L 638.156 330.653 L 564.281 263.828 C 552.067 252.763 536.151 237.487 523.448 227.752 C 509.954 217.604 495.176 209.288 479.499 203.021 C 432.922 184.009 389.905 188.026 340.361 188.035 L 643.004 458.994 L 735.013 542.106 C 758.617 563.688 814.675 619.053 842.713 627.122 C 856.429 624.35 865.906 615.668 876.539 607.157 C 909.253 580.972 940.226 553.726 971.271 525.602 L 1073.3 433.056 C 1155.42 358.178 1239.29 284.72 1322.17 210.659 C 1347.32 188.178 1372.58 165.825 1397.95 143.599 C 1418.97 125.154 1438.18 107.102 1461.7 91.6756 C 1495.76 69.3401 1530.03 55.4176 1568.95 44.5856 C 1612.39 32.4945 1650.44 34.4227 1694.92 34.575 L 1785.01 34.6403 C 1857.49 34.5808 1933.96 33.3904 2006.11 34.7152 L 2005.96 227.969 C 1986.87 227.907 1967.71 227.15 1948.65 227.767 C 1886.61 229.773 1839.66 280.346 1796.36 319.541 C 1773.95 339.771 1751.39 359.827 1728.68 379.709 L 1231.23 828.052 L 1121.94 926.382 C 1097.18 948.734 1070.83 974.262 1043.43 992.732 C 1003.12 1019.67 957.692 1038.01 909.978 1046.6 C 833.922 1059.99 744.74 1048.61 675.677 1013.52 C 626.436 988.501 577.593 940.079 536.042 902.489 L 314.766 701.354 C 281.914 671.78 237.973 628.374 202.252 603.323 C 200.888 683.472 202.162 766.913 202.125 847.446 L 202.038 1353.48 C 245.972 1353.92 289.909 1354 333.844 1353.73 C 333.139 1323.23 332.962 1292.72 333.312 1262.22 C 335.655 1268.22 332.394 1278.1 334.818 1284.19 L 335.997 1284.66 C 335.88 1284.61 339.531 1286.11 338.87 1285.64 C 344.757 1289.78 349.235 1297.09 354.443 1302.2 C 374.662 1323.13 469.063 1435.03 487.97 1441.33 L 487.915 1505.53 C 440.617 1507.02 385.377 1505.67 337.401 1505.7 L 48.1953 1505.59 L 48.5033 842.092 C 47.9144 753.255 48.067 664.415 48.9612 575.58 L 48.9656 492.319 C 48.9514 452.484 43.3498 417.045 76.6008 387.861 C 119.315 350.371 170.307 364.583 209.129 399.684 C 221.022 410.438 233.181 421.389 245.028 432.201 C 260.245 446.143 275.563 459.975 290.98 473.695 L 580.387 735.11 C 604.386 756.798 628.222 778.667 651.892 800.714 C 705.777 850.525 749.845 894.258 826.974 898.827 C 870.421 901.787 913.743 891.497 951.22 869.318 C 976.949 853.756 1018.82 814.583 1042.38 793.328 L 1166.69 681.29 L 1715.69 187.85 C 1662.86 187.555 1618.36 182.941 1569.21 205.869 C 1534.84 221.898 1517.17 239.982 1489.3 265.066 L 1432.68 315.856 L 1085.85 627.848 L 993.593 711.521 C 950.419 750.723 911.252 792.303 848.375 794.295 C 788.849 796.181 758.877 769.901 717.978 733.846 C 690.929 709.913 664.191 685.631 637.769 661.007 L 341.962 394.299 C 316.324 371.668 290.844 348.858 265.524 325.871 C 232.204 295.764 194.132 257.978 153.675 238.821 C 122.051 223.846 83.5735 226.874 48.8216 227.031 L 48.3232 34.4511 z"/>
<path transform="translate(0,0)" fill="rgb(32,75,116)" d="M 975.537 1195.35 C 989.06 1190.32 1010.61 1165.73 1021.79 1154.78 C 1041.37 1135.89 1061.08 1117.13 1080.92 1098.51 C 1289.21 902.48 1500.18 709.321 1713.78 519.088 L 1806.2 435.546 C 1846.19 399.378 1892.83 344.998 1953.62 371.58 C 1974.92 380.888 1991.63 398.283 2000.09 419.929 C 2003.81 429.765 2005.95 440.131 2006.42 450.637 C 2007.02 462.085 2006.35 476.65 2006.26 488.436 C 2006.03 513.63 2005.94 538.825 2005.99 564.02 C 2006.94 663.596 2007.11 763.178 2006.52 862.756 L 2006.57 1301.56 C 2006.54 1369.04 2007.48 1438.59 2006.4 1505.8 L 1718.58 1505.56 C 1669.02 1505.58 1616.39 1506.64 1567.08 1505.56 L 1567.02 1355.68 L 1568.42 1353.57 C 1574.35 1351.56 1706.05 1353.86 1721.88 1353.6 C 1764.52 1354.56 1809.54 1353.76 1852.36 1353.84 L 1852.6 602.727 C 1818.94 627.239 1784.51 660.737 1753.24 688.981 C 1700.35 736.372 1647.77 784.114 1595.51 832.203 C 1469.95 945.879 1345.18 1060.43 1221.21 1175.84 C 1199.1 1196.49 1093.83 1292.55 1084.27 1311.26 C 1089.3 1328.64 1095.46 1348.11 1096.95 1366.18 C 1105.25 1466.88 1047.44 1556.33 949.156 1584.19 C 895.609 1599.26 838.266 1592.44 789.748 1565.23 C 623.814 1472.26 670.256 1218.53 854.81 1183.74 C 901.996 1174.84 930.867 1182.97 975.537 1195.35 z"/>
<path transform="translate(0,0)" fill="rgb(32,75,116)" d="M 334.753 797.006 C 348.015 811.493 368.533 829.177 383.645 842.513 C 406.611 862.546 429.24 882.963 451.521 903.755 C 462.5 913.936 476.707 926.65 486.83 937.445 C 488.411 948.993 487.685 978.447 487.716 991.427 L 487.882 1096.22 L 487.97 1441.33 C 469.063 1435.03 374.662 1323.13 354.443 1302.2 C 349.235 1297.09 344.757 1289.78 338.87 1285.64 C 339.531 1286.11 335.88 1284.61 335.997 1284.66 L 334.818 1284.19 C 332.394 1278.1 335.655 1268.22 333.312 1262.22 L 333.053 962.948 C 332.961 925.303 333.079 887.658 333.404 850.015 C 333.612 834.642 333.421 812.026 334.753 797.006 z"/>
<path transform="translate(0,0)" fill="url(#Gradient1)" d="M 1567.71 937.594 C 1579.15 925.42 1593.86 913.129 1606.11 901.356 C 1643.14 865.745 1684.47 831.783 1720.74 795.717 C 1722.12 846.075 1721.26 899.629 1721.28 950.268 L 1721.54 1214.25 C 1721.59 1257.31 1720.2 1311.3 1721.88 1353.6 C 1706.05 1353.86 1574.35 1351.56 1568.42 1353.57 L 1567.02 1355.68 C 1568.56 1216.74 1565.32 1076.35 1567.71 937.594 z"/>
</svg>